# xmcd CD database file
#
# Track frame offsets:
#	150
#	26996
#	51764
#	76438
#	99168
#	120456
#	140910
#	162073
#	175965
#	202437
#	226763
#	248075
#	270085
#	293925
#
# Disc length: 4173 seconds
#
# Revision: 1
# Processed by: cddbd v1.5PL3 Copyright (c) Steve Scherf et al.
# Submitted via: CDex 1.51
#
DISCID=c1104b0e
DTITLE=move - Deep Calm
DYEAR=2004
DGENRE=Dance
TTITLE0=REALITY
TTITLE1=DEEP CALM
TTITLE2=Spiritual Tattooist
TTITLE3=RIOT GENERATOR
TTITLE4=My Sweetest Nightmare
TTITLE5=MONSTER AMPLIFIER
TTITLE6=The Massive Quest
TTITLE7=Disabuse（Instrumental)
TTITLE8=Freezing Rain
TTITLE9=Blast My Desire
TTITLE10=TWIST〜Alice in Wonderland
TTITLE11=PURE MINDS
TTITLE12=RUNAWAY
TTITLE13=Personal Letter
EXTD=YEAR: 2004
EXTT0=
EXTT1=
EXTT2=
EXTT3=
EXTT4=
EXTT5=
EXTT6=
EXTT7=
EXTT8=
EXTT9=
EXTT10=
EXTT11=
EXTT12=
EXTT13=
PLAYORDER=
